<?xml version="1.0" standalone="no"?>
<!DOCTYPE svg PUBLIC "-//W3C//DTD SVG 20010904//EN"
 "http://www.w3.org/TR/2001/REC-SVG-20010904/DTD/svg10.dtd">
<svg version="1.0" xmlns="http://www.w3.org/2000/svg"
 width="656.000000pt" height="656.000000pt" viewBox="0 0 656.000000 656.000000"
 preserveAspectRatio="xMidYMid meet">

<g transform="translate(0.000000,656.000000) scale(0.100000,-0.100000)"
fill="#000000" stroke="none">
<path d="M3055 6554 c-343 -34 -530 -70 -780 -151 -514 -165 -961 -445 -1346
-841 -405 -416 -678 -899 -824 -1457 -75 -285 -100 -499 -99 -835 0 -274 11
-391 55 -620 191 -998 859 -1866 1784 -2320 319 -156 654 -255 1035 -306 185
-25 620 -25 800 -1 538 74 985 239 1405 520 201 134 322 234 510 422 244 244
413 467 568 750 199 363 313 728 379 1205 20 146 16 603 -6 765 -105 767 -429
1416 -972 1946 -519 506 -1139 805 -1879 904 -114 16 -537 28 -630 19z m553
-79 c647 -68 1261 -331 1752 -750 100 -86 313 -301 392 -396 331 -399 565
-886 673 -1399 55 -262 79 -646 56 -910 -57 -648 -293 -1241 -698 -1750 -85
-107 -311 -340 -423 -434 -514 -438 -1143 -699 -1820 -757 -182 -16 -525 -6
-702 20 -597 88 -1113 313 -1588 695 -157 126 -401 378 -531 551 -677 893
-837 2077 -422 3120 160 404 386 748 696 1064 427 434 944 728 1528 871 142
35 329 67 459 79 158 14 469 12 628 -4z"/>
<path d="M3253 6348 c-50 -55 -40 -134 24 -194 38 -34 45 -47 45 -78 0 -59
-34 -82 -83 -55 -18 9 -20 8 -17 -17 2 -20 11 -30 30 -36 43 -15 80 9 97 60
19 62 7 109 -40 154 -47 45 -62 79 -50 112 11 28 36 39 61 26 14 -7 20 -6 24
6 17 43 -56 60 -91 22z"/>
<path d="M3056 6348 c-3 -7 -14 -89 -26 -183 -12 -93 -24 -178 -26 -187 -4
-13 0 -18 14 -18 16 0 20 9 25 55 7 69 11 75 52 75 33 0 34 -2 51 -60 10 -36
22 -60 30 -60 21 0 18 18 -34 210 -37 135 -51 176 -65 178 -9 2 -19 -2 -21
-10z m47 -145 c9 -35 17 -65 17 -68 0 -3 -14 -5 -31 -5 l-32 0 7 53 c3 28 6
63 6 77 0 37 15 12 33 -57z"/>
<path d="M3409 6166 l-14 -195 29 -5 c16 -3 46 -6 67 -6 32 0 39 3 39 20 0 16
-9 21 -50 26 -56 7 -56 8 -44 98 l7 47 43 -7 c42 -6 44 -5 44 19 0 23 -5 26
-40 29 -22 2 -40 6 -40 11 0 4 0 30 0 57 l0 50 50 0 c42 0 50 3 50 19 0 20
-34 31 -95 31 l-32 0 -14 -194z"/>
<path d="M2822 6333 c-17 -3 -21 -10 -17 -26 2 -12 14 -98 26 -192 12 -93 23
-171 24 -173 2 -2 30 0 64 4 56 6 61 9 61 31 0 23 -2 23 -49 17 l-49 -6 -7 48
c-13 91 -14 89 30 94 32 4 40 9 40 25 0 17 -6 20 -43 17 -47 -4 -47 -3 -57 70
l-6 47 45 6 c36 6 46 11 46 26 0 16 -7 19 -42 18 -24 -1 -53 -4 -66 -6z"/>
<path d="M3705 6318 c-5 -20 -75 -352 -75 -360 0 -5 6 -8 14 -8 10 0 18 19 25
53 6 28 19 93 29 142 l18 90 8 -150 c4 -82 9 -151 11 -153 10 -11 26 19 75
142 29 75 55 135 56 133 2 -2 -6 -66 -16 -142 -24 -166 -23 -155 -6 -155 16 0
18 10 46 224 17 130 19 161 8 167 -20 13 -32 -6 -85 -144 l-50 -127 -7 61 c-3
34 -6 102 -6 150 0 83 -1 89 -20 89 -11 0 -22 -6 -25 -12z"/>
<path d="M2627 6298 c-22 -8 -28 -15 -24 -32 3 -11 20 -96 37 -188 23 -120 37
-168 46 -168 17 0 17 15 2 96 -6 35 -9 67 -5 70 3 4 17 4 31 0 19 -5 29 -20
48 -72 20 -59 40 -85 53 -72 8 8 -34 121 -56 151 -15 21 -17 31 -9 46 24 47 1
149 -38 170 -25 13 -47 13 -85 -1z m78 -53 c43 -42 27 -125 -24 -125 -24 0
-50 128 -29 141 20 13 27 11 53 -16z"/>
<path d="M4000 6278 c0 -2 -22 -87 -49 -191 -27 -103 -46 -189 -42 -191 3 -2
30 -9 60 -16 44 -10 55 -10 62 1 14 23 11 26 -37 38 -51 13 -51 11 -24 112 10
36 11 37 43 28 47 -13 57 -11 57 11 0 14 -11 22 -41 30 -30 8 -39 15 -35 28 3
9 10 36 16 59 l10 41 36 -10 c41 -11 64 -5 64 16 0 9 -16 19 -42 26 -24 6 -51
13 -60 16 -10 3 -18 4 -18 2z"/>
<path d="M2454 6255 c-35 -24 -47 -68 -42 -148 10 -160 111 -277 193 -223 29
19 36 63 8 51 -69 -30 -106 -13 -141 63 -37 79 -38 185 -3 213 13 10 34 19 47
19 17 0 24 6 24 20 0 16 -7 20 -33 20 -18 0 -42 -7 -53 -15z"/>
<path d="M2280 6202 c0 -8 60 -180 90 -257 6 -16 7 -25 2 -20 -4 6 -50 61
-101 123 -84 102 -108 122 -123 107 -3 -3 23 -85 58 -183 35 -97 64 -178 64
-179 0 -2 7 -3 15 -3 8 0 15 2 15 4 0 3 -20 60 -44 128 -64 178 -61 167 -37
137 17 -22 177 -217 186 -227 2 -2 10 0 18 5 12 7 3 40 -51 191 -41 114 -70
182 -79 182 -7 0 -13 -4 -13 -8z"/>
<path d="M4193 6016 c-49 -148 -58 -186 -47 -190 8 -3 17 0 19 7 24 62 115
344 115 354 0 7 -6 13 -13 13 -7 0 -37 -74 -74 -184z"/>
<path d="M4285 5994 c-39 -97 -72 -180 -74 -186 -2 -5 5 -8 14 -6 12 2 35 45
72 138 l54 135 -6 -161 c-5 -141 -3 -162 10 -168 10 -4 19 2 24 17 5 12 37 91
70 176 34 85 59 161 56 169 -9 24 -18 7 -74 -133 l-52 -130 3 160 c4 221 -6
220 -97 -11z"/>
<path d="M2050 6109 c0 -11 113 -285 137 -333 10 -20 18 -25 25 -18 14 14
-130 362 -149 362 -7 0 -13 -5 -13 -11z"/>
<path d="M4579 5877 c-89 -171 -99 -197 -77 -197 8 0 27 27 43 60 16 33 38 68
48 78 19 17 19 15 12 -84 -5 -73 -4 -104 5 -109 6 -4 13 -5 15 -3 2 2 9 55 16
119 l11 114 74 54 c68 50 82 71 49 71 -7 0 -45 -25 -84 -55 -39 -30 -73 -55
-75 -55 -2 0 14 33 35 73 44 82 44 83 26 90 -10 4 -40 -46 -98 -156z"/>
<path d="M1770 5978 c-27 -14 -45 -29 -44 -39 1 -9 40 -89 88 -178 l87 -161
39 20 c53 27 70 55 70 115 0 89 -78 223 -147 251 -42 18 -41 18 -93 -8z m117
-52 c39 -33 82 -114 89 -169 6 -42 4 -49 -25 -78 -18 -18 -36 -28 -40 -23 -13
14 -141 252 -141 262 0 37 76 43 117 8z"/>
<path d="M4754 5783 c-98 -157 -107 -175 -89 -182 6 -2 44 51 85 117 41 66 76
119 77 118 2 -1 -11 -63 -27 -137 -51 -232 -39 -235 93 -24 104 166 108 175
91 182 -7 2 -46 -53 -89 -122 -42 -69 -79 -125 -81 -125 -3 0 -3 4 0 9 6 9 66
284 66 300 0 5 -6 11 -14 14 -10 4 -44 -41 -112 -150z"/>
<path d="M1566 5857 c-20 -16 -27 -28 -21 -38 54 -95 201 -309 212 -309 19 0
14 15 -32 86 -20 31 -34 63 -31 70 11 30 49 14 102 -43 41 -45 56 -55 65 -46
9 9 -4 28 -59 84 -40 39 -70 74 -67 78 10 17 -17 79 -46 109 -38 39 -81 42
-123 9z m109 -43 c32 -35 34 -88 4 -104 -23 -13 -30 -7 -70 67 -21 38 -22 45
-9 53 26 16 50 11 75 -16z"/>
<path d="M2995 5809 c-145 -17 -368 -67 -505 -113 -395 -131 -714 -329 -1010
-625 -482 -484 -740 -1108 -740 -1791 0 -472 123 -917 363 -1312 420 -691
1130 -1138 1932 -1219 183 -18 495 -7 675 25 1083 188 1913 1035 2087 2126 25
163 26 596 0 758 -92 573 -347 1061 -763 1461 -365 351 -814 578 -1324 668
-124 22 -181 26 -390 29 -135 1 -281 -2 -325 -7z m569 -74 c558 -65 1062 -310
1461 -710 354 -353 583 -781 679 -1265 39 -197 49 -327 43 -552 -5 -232 -32
-410 -91 -614 -243 -843 -931 -1506 -1778 -1714 -231 -57 -309 -65 -603 -65
-301 0 -406 13 -650 80 -966 265 -1683 1101 -1800 2101 -96 821 230 1639 866
2174 370 311 819 507 1292 564 154 19 425 19 581 1z"/>
<path d="M3130 4867 c-37 -19 -47 -50 -55 -174 l-7 -113 61 0 61 0 0 86 c0 71
4 90 20 111 26 33 25 49 -5 78 -27 28 -39 30 -75 12z"/>
<path d="M3629 3699 c-11 -7 -9 -9 6 -9 16 0 17 -2 5 -9 -8 -6 -18 -7 -24 -4
-5 3 -6 1 -2 -5 4 -6 14 -9 24 -6 15 5 15 4 -1 -6 -13 -8 -31 -9 -68 -1 -95
21 -89 29 -89 -123 0 -74 4 -137 8 -140 5 -3 39 1 77 9 37 8 71 13 75 10 4 -2
6 -17 5 -32 -1 -29 -2 -30 -175 -67 l-75 -16 1 -883 c1 -485 2 -892 3 -904 2
-31 31 -37 112 -23 149 25 271 115 337 249 l37 75 5 180 5 180 -98 230 c-54
127 -107 250 -117 272 -10 23 -36 84 -58 135 l-39 94 76 0 c77 1 136 21 184
63 9 8 19 13 22 10 2 -2 43 -90 91 -194 47 -104 97 -214 111 -244 14 -30 56
-122 93 -205 37 -82 88 -193 112 -245 25 -52 98 -213 163 -357 65 -145 122
-263 126 -263 5 0 568 600 672 717 l20 22 -183 418 c-101 230 -187 422 -191
427 -4 4 -106 -92 -227 -215 l-220 -224 -71 148 c-39 82 -71 162 -71 178 0 34
23 84 44 96 8 4 50 42 93 83 220 208 222 210 280 210 29 0 43 4 43 13 0 11
-139 332 -156 358 -3 5 -22 -4 -42 -19 -90 -71 -228 -118 -381 -129 l-94 -6
-66 -61 c-36 -34 -79 -72 -95 -86 l-28 -25 2 85 c2 47 2 93 1 102 -1 24 -51
73 -98 96 -55 28 -148 51 -164 41z m979 -102 c12 -29 22 -55 22 -59 0 -3 -110
-108 -244 -233 -148 -137 -249 -239 -258 -258 -7 -18 -13 -59 -12 -93 1 -57 8
-74 113 -280 62 -120 122 -229 134 -241 14 -16 32 -23 56 -23 34 0 48 12 211
180 193 199 209 209 236 143 9 -21 45 -102 81 -180 55 -120 65 -148 60 -179
-7 -39 -29 -66 -220 -261 -122 -125 -142 -134 -201 -90 -17 13 -37 27 -44 31
-7 4 19 -56 58 -133 38 -78 74 -141 78 -141 11 0 414 417 436 452 10 15 24 47
31 70 l13 43 26 -59 c15 -32 26 -65 24 -72 -2 -7 -75 -90 -164 -186 -348 -375
-468 -503 -472 -503 -3 0 -157 333 -342 740 l-338 740 57 55 c31 30 130 125
221 210 90 85 218 206 283 268 65 61 122 112 126 112 4 0 17 -24 29 -53z
m-168 -30 c-8 -7 -58 -54 -110 -103 -109 -102 -324 -302 -420 -390 -87 -79
-114 -97 -187 -124 -70 -25 -116 -22 -151 11 -44 40 -59 23 301 354 l218 200
92 7 c51 4 128 18 172 31 97 30 103 31 85 14z"/>
<path d="M2564 3674 c-68 -27 -122 -68 -135 -101 -5 -14 -9 -377 -9 -896 0
-690 3 -884 14 -928 26 -114 99 -199 202 -239 81 -32 301 -42 327 -15 16 16
17 81 15 907 l-3 891 -143 28 c-187 37 -183 35 -178 65 3 13 1 22 -4 19 -4 -3
-10 1 -13 9 -6 16 -4 16 120 -9 40 -8 77 -15 83 -15 6 0 10 50 10 140 l0 140
-27 0 c-25 0 -54 -6 -140 -25 -18 -4 -21 -1 -19 20 2 13 -1 22 -5 19 -5 -3 -9
-1 -9 4 0 14 -27 10 -86 -14z m89 -7 c3 -8 2 -20 -3 -26 -5 -9 -7 -4 -7 13 0
29 2 32 10 13z"/>
<path d="M3618 3396 c4 -6 7 -14 7 -18 0 -19 11 -14 11 6 0 12 -6 23 -13 23
-6 0 -9 -5 -5 -11z"/>
<path d="M2073 5769 c-8 -8 -5 -29 10 -75 20 -60 37 -83 37 -49 0 24 -22 120
-29 128 -4 4 -12 2 -18 -4z"/>
<path d="M5042 5743 c-18 -9 -52 -38 -77 -65 -87 -96 -117 -208 -66 -249 33
-27 70 -24 122 9 54 35 100 91 134 163 30 66 31 98 4 133 -24 31 -66 34 -117
9z m86 -35 c58 -58 -113 -285 -193 -255 -25 10 -29 54 -10 104 26 66 121 163
161 163 16 0 35 -5 42 -12z"/>
<path d="M1380 5723 c-39 -50 -8 -149 76 -242 132 -146 264 -75 179 96 -72
143 -200 216 -255 146z m109 -27 c65 -34 149 -171 137 -221 -14 -54 -83 -38
-149 34 -108 119 -100 244 12 187z"/>
<path d="M5157 5480 c-99 -147 -115 -180 -86 -180 6 0 56 37 112 83 56 46 108
86 115 91 7 4 -26 -49 -73 -117 -67 -99 -82 -127 -72 -136 10 -8 49 17 165
110 84 66 152 124 152 129 0 26 -28 10 -135 -78 -65 -53 -115 -90 -110 -82 5
8 41 63 82 122 128 186 92 178 -171 -41 -11 -9 20 41 68 111 77 113 93 148 68
148 -4 0 -56 -72 -115 -160z"/>
<path d="M1195 5570 c-5 -9 242 -300 254 -300 3 0 25 17 49 38 31 27 41 42 37
55 -10 24 -19 22 -58 -13 l-34 -30 -113 130 c-62 72 -116 130 -121 130 -4 0
-11 -4 -14 -10z"/>
<path d="M1074 5456 c-3 -7 15 -48 40 -91 25 -42 46 -78 46 -79 0 -2 -38 16
-84 40 -73 38 -85 42 -96 29 -11 -13 4 -23 101 -69 87 -41 126 -66 164 -105
46 -47 75 -64 75 -42 0 5 -26 34 -57 65 -43 40 -73 83 -113 160 -30 58 -59
106 -63 106 -4 0 -10 -6 -13 -14z"/>
<path d="M5372 5279 l-142 -131 41 -50 c40 -47 42 -48 61 -32 18 17 18 18 -14
51 l-33 34 129 122 c110 105 135 137 107 137 -4 0 -70 -59 -149 -131z"/>
<path d="M907 5273 c-13 -12 -7 -22 88 -137 52 -64 94 -116 93 -116 -2 0 -64
31 -138 70 -126 65 -161 74 -147 38 9 -24 285 -259 292 -248 9 15 4 21 -110
119 -58 50 -104 91 -103 91 2 0 63 -31 136 -69 98 -50 135 -65 139 -55 2 7
-38 64 -91 129 -53 63 -95 115 -93 115 2 0 57 -40 123 -89 66 -50 123 -86 128
-81 4 4 6 13 2 18 -8 14 -293 222 -303 222 -5 0 -13 -3 -16 -7z"/>
<path d="M5486 5149 c-160 -132 -154 -121 -97 -189 27 -32 31 -34 46 -19 15
15 14 18 -9 46 -14 17 -26 35 -26 41 0 11 84 82 97 82 4 0 19 -13 33 -30 22
-26 27 -28 43 -16 17 13 16 15 -8 44 -14 16 -25 34 -24 38 0 5 19 24 41 42
l41 33 32 -31 c21 -20 37 -28 48 -24 9 3 17 8 17 11 0 9 -72 93 -80 93 -4 0
-73 -54 -154 -121z"/>
<path d="M5603 5012 c-84 -59 -152 -113 -153 -120 0 -24 38 -69 70 -82 63 -26
168 11 246 86 56 55 73 108 49 155 -19 37 -45 70 -54 68 -3 0 -74 -49 -158
-107z m172 22 c16 -33 15 -37 -3 -72 -21 -42 -107 -107 -160 -122 -37 -10
-100 8 -103 29 -1 6 -2 15 -3 21 -1 9 232 180 245 180 4 0 14 -16 24 -36z"/>
<path d="M677 4967 c-3 -9 20 -29 64 -56 68 -42 69 -43 55 -69 -37 -70 -36
-70 -111 -24 -61 39 -85 45 -85 22 0 -8 320 -210 333 -210 2 0 7 6 10 13 3 9
-22 30 -69 58 -41 24 -74 48 -74 54 0 6 11 27 25 48 29 42 25 43 123 -20 48
-30 72 -35 72 -14 0 7 -322 211 -333 211 -3 0 -7 -6 -10 -13z"/>
<path d="M5783 4842 c-100 -40 -173 -115 -173 -179 0 -33 41 -93 64 -93 6 0
46 20 89 45 l78 46 -18 30 c-22 36 -49 35 -45 -3 2 -21 -6 -30 -45 -53 l-46
-28 -19 23 c-10 12 -18 30 -18 40 0 53 110 141 192 155 32 6 46 3 67 -12 14
-11 28 -29 29 -39 6 -29 16 -35 36 -21 18 13 18 15 2 49 -9 19 -28 40 -42 47
-35 16 -102 13 -151 -7z"/>
<path d="M561 4721 c-36 -10 -65 -54 -57 -85 29 -114 288 -226 356 -154 41 44
15 113 -65 168 -84 58 -178 87 -234 71z m171 -73 c64 -34 108 -78 108 -109 0
-10 -11 -26 -26 -35 -22 -15 -32 -15 -79 -5 -64 14 -155 71 -179 112 -18 30
-11 61 16 73 27 12 102 -5 160 -36z"/>
<path d="M5854 4603 l-172 -86 23 -49 c29 -62 36 -70 55 -58 15 9 14 13 -15
82 -5 13 6 23 54 47 l61 31 20 -40 c14 -27 25 -38 35 -34 19 8 19 27 0 64
l-15 30 50 25 c27 14 52 25 54 25 3 0 15 -18 26 -40 22 -42 29 -47 47 -29 9 9
5 25 -15 65 -14 30 -29 54 -32 53 -3 0 -82 -39 -176 -86z"/>
<path d="M607 4295 l-27 -34 -41 14 c-23 8 -43 15 -46 15 -2 0 6 -17 19 -39
l22 -39 -27 -36 c-30 -38 -25 -43 31 -27 31 9 34 8 60 -32 l27 -41 5 49 c4 43
8 49 35 58 61 18 61 19 16 38 l-44 19 5 45 c3 25 3 45 -1 45 -3 0 -18 -16 -34
-35z"/>
<path d="M5952 4286 l2 -49 -43 -17 c-48 -18 -46 -24 12 -35 35 -7 37 -9 37
-46 0 -21 4 -40 9 -44 7 -4 37 29 56 62 0 1 18 -3 38 -9 49 -15 57 -4 22 32
l-28 29 27 41 c29 44 24 48 -31 25 l-36 -15 -34 37 -33 38 2 -49z"/>
<path d="M511 4006 c-32 -33 -34 -34 -67 -20 -51 21 -57 17 -30 -23 27 -39 27
-39 -19 -92 l-20 -24 38 7 c21 4 44 9 50 12 7 2 24 -14 38 -37 l26 -41 7 49
c6 48 7 49 54 62 l47 13 -45 18 -45 18 3 46 c2 25 1 46 -1 46 -1 0 -18 -15
-36 -34z"/>
<path d="M6050 3997 c0 -47 -1 -48 -42 -66 -44 -19 -44 -20 17 -38 27 -9 31
-15 35 -59 l5 -49 28 43 c21 32 33 42 45 37 9 -3 30 -9 46 -12 26 -5 27 -4 18
14 -6 11 -18 25 -26 33 -21 17 -20 26 5 62 27 38 19 44 -30 25 l-40 -16 -30
37 -30 37 -1 -48z"/>
<path d="M454 3689 c-30 -30 -33 -31 -69 -19 -46 15 -53 9 -26 -29 23 -32 20
-53 -13 -81 -21 -17 -20 -33 2 -26 65 19 69 19 92 -18 29 -48 40 -45 40 8 l0
44 48 12 47 13 -45 21 c-37 17 -45 25 -42 44 2 12 2 31 0 42 -3 19 -5 18 -34
-11z"/>
<path d="M6110 3678 c0 -46 0 -47 -47 -64 l-46 -18 49 -15 c48 -16 49 -17 54
-64 l5 -48 25 41 c20 33 29 40 48 35 12 -3 34 -8 49 -12 l28 -6 -29 38 -30 38
22 38 c12 21 22 40 22 42 0 3 -21 -3 -46 -12 l-45 -16 -29 35 -29 35 -1 -47z"/>
<path d="M416 3318 l-25 -33 -46 16 c-25 9 -45 14 -45 10 0 -4 11 -22 24 -41
l24 -35 -30 -34 c-34 -39 -31 -47 13 -32 47 16 52 14 79 -27 l25 -37 5 45 c5
44 6 45 54 61 l49 15 -47 18 -48 18 4 44 c2 24 0 44 -4 44 -3 0 -18 -15 -32
-32z"/>
<path d="M6140 3305 c0 -28 -5 -47 -12 -50 -7 -2 -26 -10 -43 -16 l-30 -12 48
-14 c43 -13 47 -17 47 -46 0 -55 14 -63 40 -22 18 30 27 35 46 31 13 -3 36 -9
52 -13 l27 -6 -32 37 c-18 20 -33 39 -33 42 0 3 8 18 18 32 35 51 35 52 -14
35 l-47 -16 -29 31 c-15 18 -30 32 -33 32 -3 0 -5 -20 -5 -45z"/>
<path d="M478 2997 l-26 -32 -46 17 c-25 9 -46 15 -46 12 0 -3 11 -21 25 -41
26 -39 26 -39 -20 -92 l-20 -24 30 7 c17 4 40 10 51 12 17 4 27 -3 45 -33 l24
-38 9 47 c9 45 11 47 55 59 l46 12 -48 20 -48 21 7 43 c7 51 -1 53 -38 10z"/>
<path d="M6078 2986 c-3 -49 -4 -50 -48 -64 l-45 -15 50 -16 c49 -16 50 -17
53 -58 2 -24 7 -43 13 -43 5 0 9 3 9 8 0 4 10 19 23 35 21 25 24 26 60 16 22
-6 41 -8 43 -6 3 2 -8 19 -23 37 l-27 33 22 38 c25 43 25 44 -30 27 -38 -11
-40 -10 -68 23 l-28 34 -4 -49z"/>
<path d="M5820 2565 c-26 -70 -27 -68 66 -146 l88 -74 -119 -5 -118 -5 -17
-50 c-10 -27 -50 -111 -89 -186 -39 -75 -71 -140 -71 -146 0 -8 41 -33 55 -33
2 0 14 20 26 45 12 25 27 45 32 45 6 0 97 -45 202 -99 l192 -99 22 38 c11 21
21 42 21 48 0 5 -84 53 -187 106 -104 54 -192 101 -196 106 -5 4 1 26 12 48
26 52 26 56 -1 70 l-23 11 25 0 c14 1 89 6 167 11 l143 10 95 -35 96 -34 10
27 c26 66 21 73 -70 105 -85 31 -98 41 -276 207 -69 64 -73 66 -85 35z"/>
<path d="M646 2514 c-33 -13 -63 -29 -66 -35 -4 -6 -22 -66 -40 -134 l-34
-124 -44 -16 c-24 -10 -46 -14 -50 -11 -3 4 -14 28 -24 53 -17 44 -16 63 1 63
5 0 24 7 44 15 l35 14 -17 46 c-14 41 -19 46 -41 41 -43 -8 -120 -45 -126 -59
-7 -19 84 -269 103 -284 12 -9 30 -7 87 14 39 14 78 32 87 39 9 8 31 71 49
140 35 131 33 128 98 148 19 7 25 1 42 -40 12 -26 19 -53 16 -60 -2 -6 -21
-17 -40 -24 -20 -6 -36 -16 -36 -22 0 -26 24 -88 34 -87 6 0 38 10 71 23 42
16 61 29 63 42 3 19 -65 221 -88 264 -14 27 -51 25 -124 -6z"/>
<path d="M809 2155 c-281 -147 -354 -192 -356 -216 -2 -27 122 -256 148 -272
13 -8 61 14 215 98 226 122 224 121 224 147 0 27 -128 256 -149 267 -13 7 -34
1 -82 -24z m106 -140 c18 -35 26 -58 20 -64 -14 -13 -311 -171 -321 -171 -10
0 -70 107 -63 114 10 10 315 175 324 175 6 1 23 -24 40 -54z"/>
<path d="M5496 1870 c-15 -23 -26 -43 -24 -45 10 -9 415 -268 425 -272 11 -4
70 73 62 81 -9 8 -415 269 -425 273 -6 2 -23 -15 -38 -37z"/>
<path d="M890 1709 c-102 -76 -190 -146 -197 -155 -16 -22 -10 -33 85 -162 42
-56 85 -105 95 -108 13 -4 74 36 215 142 108 81 199 148 201 150 4 3 -52 84
-59 84 -3 0 -86 -61 -184 -134 l-180 -135 -38 51 c-21 29 -38 54 -38 57 1 3
79 64 175 136 96 71 175 134 175 139 0 12 -49 76 -58 75 -4 0 -90 -63 -192
-140z"/>
<path d="M5378 1698 c-95 -113 -138 -170 -138 -183 0 -24 113 -115 142 -115
15 0 76 14 135 30 60 17 117 28 128 25 11 -3 33 -16 48 -30 l28 -25 -38 -45
c-20 -25 -40 -45 -43 -45 -3 1 -21 14 -40 31 l-35 30 -33 -37 c-18 -21 -31
-41 -30 -45 8 -20 105 -89 123 -87 26 4 195 207 195 235 0 25 -117 123 -146
123 -11 -1 -73 -16 -139 -35 l-120 -34 -32 25 c-18 14 -33 30 -33 37 1 7 16
29 35 51 l34 39 27 -19 c15 -11 33 -23 40 -28 9 -7 19 -3 33 15 45 52 45 54
-10 98 -29 23 -60 41 -70 41 -9 0 -37 -24 -61 -52z"/>
<path d="M1280 1535 l-24 -25 39 -40 39 -40 -159 -160 -160 -160 37 -36 36
-36 50 48 c27 27 99 98 160 159 l112 109 40 -39 40 -39 25 25 25 24 -118 118
-118 118 -24 -26z"/>
<path d="M5065 1360 c-61 -55 -110 -105 -110 -110 0 -10 336 -380 346 -380 3
0 20 16 39 35 l33 34 -151 164 -150 164 45 44 45 44 54 -59 54 -60 -35 -36
c-34 -35 -35 -37 -17 -53 10 -9 72 -39 137 -66 l120 -49 38 30 c20 16 37 33
37 38 0 6 -83 43 -208 91 l-24 9 26 31 c14 17 26 35 26 40 0 5 -17 28 -37 51
-90 102 -127 138 -142 138 -9 0 -66 -45 -126 -100z"/>
<path d="M1400 1107 c-85 -111 -155 -205 -155 -209 0 -8 65 -58 76 -58 3 0 35
37 70 83 34 45 64 84 66 86 5 6 44 -16 81 -47 l34 -28 -71 -91 -71 -92 41 -32
c23 -18 44 -28 49 -23 5 5 77 97 159 204 l151 195 -37 33 c-20 17 -39 32 -42
32 -3 -1 -33 -36 -66 -80 -33 -44 -64 -79 -69 -80 -6 0 -60 38 -99 70 -4 4 22
44 58 91 l65 84 -27 23 c-57 48 -47 55 -213 -161z"/>
<path d="M4793 1142 c-62 -42 -110 -82 -108 -89 8 -23 279 -405 291 -410 9 -3
172 104 231 151 1 1 -8 14 -20 29 l-22 28 -72 -51 -72 -50 -47 65 c-52 74 -55
65 33 122 24 16 43 31 43 34 0 4 -9 17 -19 30 l-19 24 -62 -43 c-35 -23 -63
-41 -64 -40 -1 2 -19 27 -39 56 -20 28 -37 56 -37 61 0 5 31 30 70 56 l69 48
-20 29 c-11 15 -21 28 -22 28 -1 0 -52 -35 -114 -78z"/>
<path d="M1752 855 c-67 -119 -123 -221 -125 -227 -1 -9 223 -148 239 -148 2
0 10 13 19 30 15 30 15 30 -17 50 -18 11 -52 30 -75 42 -24 13 -43 27 -43 31
0 4 17 37 37 72 l37 64 45 -26 c25 -15 50 -30 56 -35 18 -16 42 -8 54 18 6 15
10 28 9 29 -2 1 -30 17 -63 36 -33 18 -62 34 -63 35 -2 1 13 32 33 69 25 44
41 63 49 57 6 -5 41 -25 78 -46 l67 -37 16 32 c9 17 15 32 13 34 -8 6 -236
135 -240 135 -2 0 -59 -97 -126 -215z"/>
<path d="M4597 1009 c-27 -14 -37 -25 -33 -37 45 -157 86 -315 83 -318 -2 -2
-54 57 -116 131 l-112 136 -42 -23 c-23 -13 -40 -27 -38 -33 3 -11 341 -395
348 -395 12 0 83 47 83 55 1 30 -117 505 -125 504 -5 0 -27 -9 -48 -20z"/>
<path d="M2237 838 c-149 -202 -279 -382 -283 -392 -3 -8 12 -19 38 -30 47
-18 48 -18 88 43 l15 22 57 -22 58 -22 -6 -51 -6 -52 43 -17 c23 -9 44 -15 46
-13 3 3 73 492 73 514 0 10 -77 52 -95 52 -2 0 -15 -15 -28 -32z m6 -224 c-9
-54 -18 -101 -19 -102 -4 -6 -73 19 -79 29 -6 8 106 181 113 174 1 -1 -5 -47
-15 -101z"/>
<path d="M4233 842 c-24 -9 -43 -21 -43 -26 0 -14 172 -459 181 -470 11 -12
102 23 96 38 -3 6 -44 112 -92 236 -48 124 -90 228 -94 231 -3 4 -25 -1 -48
-9z"/>
<path d="M4063 779 c-21 -6 -33 -16 -33 -27 1 -9 16 -73 35 -142 18 -69 32
-126 31 -127 -1 -2 -49 51 -107 117 l-104 120 -44 -5 c-25 -3 -47 -7 -49 -10
-5 -4 114 -480 124 -496 7 -12 94 14 94 29 0 8 -16 73 -35 144 -20 72 -34 132
-33 133 2 2 52 -53 112 -122 109 -124 109 -125 145 -118 20 4 40 10 45 15 13
13 -116 494 -134 497 -8 1 -30 -3 -47 -8z"/>
<path d="M2518 758 c-16 -13 -48 -116 -48 -154 0 -11 40 -66 89 -123 95 -112
93 -105 66 -188 -3 -8 -17 -8 -57 1 -50 11 -53 14 -52 41 0 17 2 41 5 54 4 22
-1 26 -44 37 -36 9 -49 9 -52 1 -21 -62 -33 -133 -25 -148 13 -23 275 -87 299
-72 14 9 50 126 51 167 0 10 -39 63 -86 118 -83 96 -86 101 -81 140 3 22 8 42
11 45 3 4 31 1 62 -6 l56 -13 -7 -35 c-3 -19 -8 -40 -11 -47 -3 -9 10 -17 40
-25 25 -6 49 -11 55 -11 5 0 15 32 22 70 10 60 10 73 -2 85 -8 7 -66 25 -129
40 -63 15 -122 29 -131 31 -8 2 -22 -2 -31 -8z"/>
<path d="M3683 692 c-52 -4 -51 9 -22 -260 12 -106 20 -195 18 -196 -2 -2 -32
-6 -66 -9 l-62 -7 -6 33 c-3 17 -14 117 -24 221 -11 103 -22 191 -25 193 -3 3
-26 2 -51 -1 -33 -5 -45 -12 -45 -24 1 -45 49 -473 55 -482 8 -13 67 -13 175
0 130 15 148 19 154 36 7 18 -42 487 -52 494 -4 3 -26 4 -49 2z"/>
<path d="M2850 655 l0 -35 49 0 c28 0 52 -3 54 -7 2 -5 -6 -105 -18 -223 -13
-118 -21 -218 -18 -223 2 -4 26 -7 52 -7 l47 0 18 178 c10 97 20 197 23 221
l6 43 53 -5 c55 -6 64 0 64 43 0 14 -9 21 -32 24 -55 9 -225 26 -263 26 -33 0
-35 -2 -35 -35z"/>
</g>
</svg>
